<svg xmlns="http://www.w3.org/2000/svg" viewBox="0 0 86.26 86.26"><title>getMusicLogo</title><circle cx="43.13" cy="43.13" r="43.13" fill="#3c3c3b"/><circle cx="70.43" cy="42.09" r="8.34" fill="#f28f3b"/><path d="M56.09,33.5h-17V27.58q0-5.59-.48-7a2.14,2.14,0,0,0-2.29-1.41,2.14,2.14,0,0,0-2.14,1.21c-.38.81-.56,2.87-.56,6.2V57.88a18.55,18.55,0,0,0,.56,5.78,2.21,2.21,0,0,0,2.26,1.39A2.48,2.48,0,0,0,39,63.48q.68-1.57.67-6.13V49.62H36.22V39.71H56.09v35H45.43L43.86,70a11.83,11.83,0,0,1-4.38,4.54,12.38,12.38,0,0,1-6.22,1.51,16.17,16.17,0,0,1-8-2.08,15.31,15.31,0,0,1-5.66-5.13,16.32,16.32,0,0,1-2.42-6.43,77.74,77.74,0,0,1-.48-10.09V33q0-9.34,1-13.58t5.78-7.75q4.79-3.53,12.35-3.53t12.37,3.06q4.92,3.08,6.41,7.28t1.49,12.22Z" fill="#fff"/></svg>