<svg xmlns="http://www.w3.org/2000/svg" xmlns:xlink="http://www.w3.org/1999/xlink" viewBox="0 0 107.37 107.37"><defs><linearGradient id="a" x1="53.68" y1="107.37" x2="53.68" gradientUnits="userSpaceOnUse"><stop offset="0" stop-color="#403f92"/><stop offset="1" stop-color="#eb5675"/></linearGradient></defs><title>instagram</title><circle cx="53.68" cy="53.68" r="53.68" fill="url(#a)"/><path d="M53.68,77.12c-6.33,0-7.16,0-9.66-.14a17.44,17.44,0,0,1-5.68-1.09A12,12,0,0,1,31.48,69a17.19,17.19,0,0,1-1.09-5.69c-.11-2.5-.14-3.33-.14-9.66s0-7.16.14-9.66a17.29,17.29,0,0,1,1.09-5.69,11.93,11.93,0,0,1,6.86-6.85A17.18,17.18,0,0,1,44,30.39c2.5-.11,3.33-.14,9.66-.14s7.17,0,9.66.14A17.24,17.24,0,0,1,69,31.48a12,12,0,0,1,6.86,6.85A17.55,17.55,0,0,1,77,44c.11,2.5.14,3.33.14,9.66s0,7.16-.14,9.66A17.5,17.5,0,0,1,75.89,69,12.06,12.06,0,0,1,69,75.89,17.5,17.5,0,0,1,63.34,77C60.84,77.09,60,77.12,53.68,77.12Zm0-42.64c-6.26,0-7,0-9.46.14a12.78,12.78,0,0,0-4.35.81,7.75,7.75,0,0,0-4.44,4.44,12.78,12.78,0,0,0-.81,4.35c-.11,2.46-.14,3.2-.14,9.46s0,7,.14,9.47a12.9,12.9,0,0,0,.81,4.35,7.75,7.75,0,0,0,4.44,4.44,13,13,0,0,0,4.35.81c2.46.11,3.2.13,9.46.13s7,0,9.47-.13a13.16,13.16,0,0,0,4.35-.81,7.75,7.75,0,0,0,4.44-4.44,13.16,13.16,0,0,0,.81-4.35c.11-2.47.13-3.21.13-9.47s0-7-.13-9.46a13,13,0,0,0-.81-4.35,7.75,7.75,0,0,0-4.44-4.44,12.9,12.9,0,0,0-4.35-.81C60.68,34.51,59.94,34.48,53.68,34.48Z" fill="#fff"/><path d="M53.68,41.77A11.91,11.91,0,1,0,65.59,53.68,11.92,11.92,0,0,0,53.68,41.77m0,19.64a7.73,7.73,0,1,1,7.73-7.73,7.73,7.73,0,0,1-7.73,7.73" fill="#fff"/><path d="M69,41.18a2.81,2.81,0,1,1-2.81-2.81A2.81,2.81,0,0,1,69,41.18" fill="#fff"/></svg>