<svg xmlns="http://www.w3.org/2000/svg" xmlns:xlink="http://www.w3.org/1999/xlink" viewBox="0 0 123.22 25.16"><defs><clipPath id="a"><path d="M7.72,0H6.21A11.37,11.37,0,0,0,4.56.16,5.37,5.37,0,0,0,3,.68,5.23,5.23,0,0,0,.68,3,5.37,5.37,0,0,0,.16,4.56,11.37,11.37,0,0,0,0,6.21C0,6.46,0,6.72,0,7V18.19c0,.26,0,.51,0,.76A11.37,11.37,0,0,0,.16,20.6a5.53,5.53,0,0,0,.52,1.58,5.28,5.28,0,0,0,1,1.33,5,5,0,0,0,1.34,1A5.66,5.66,0,0,0,4.56,25a10.12,10.12,0,0,0,1.65.15H19A10.25,10.25,0,0,0,20.61,25a5.55,5.55,0,0,0,1.57-.51,5.32,5.32,0,0,0,1.33-1,5.09,5.09,0,0,0,1-1.33A5.84,5.84,0,0,0,25,20.6,11.37,11.37,0,0,0,25.15,19c0-.25,0-.5,0-.76V7c0-.25,0-.51,0-.76A10.12,10.12,0,0,0,25,4.56,5.35,5.35,0,0,0,24.49,3a5.2,5.2,0,0,0-1-1.34,5.28,5.28,0,0,0-1.33-1A5.57,5.57,0,0,0,20.61.16,11.64,11.64,0,0,0,19,0H7.72Z" fill="none"/></clipPath><linearGradient id="b" x1="-1610.66" y1="1239.27" x2="-1610.63" y2="1239.27" gradientTransform="translate(1190977.48 1547873.59) rotate(90) scale(961.02)" gradientUnits="userSpaceOnUse"><stop offset="0" stop-color="#d0599d"/><stop offset="1" stop-color="#8858a0"/></linearGradient><clipPath id="c"><path d="M12.43,3.2a.43.43,0,0,0-.14.13l0,0a.94.94,0,0,0-.14.26c-.1.27-.2.54-.29.81L10.16,9.61H15L13.31,4.43c-.09-.27-.18-.54-.29-.81a1.05,1.05,0,0,0-.13-.26l0,0a.55.55,0,0,0-.14-.13.3.3,0,0,0-.15-.05.25.25,0,0,0-.15.05" fill="none"/></clipPath><radialGradient id="d" cx="-1610.55" cy="1242.41" r="0.03" gradientTransform="translate(1156096.72 -891813.72) scale(717.83)" gradientUnits="userSpaceOnUse"><stop offset="0" stop-color="#f8e3f0"/><stop offset="0.74" stop-color="#f8e3f0"/><stop offset="0.81" stop-color="#f7deed"/><stop offset="0.88" stop-color="#f3d1e5"/><stop offset="0.96" stop-color="#ebbad8"/><stop offset="0.98" stop-color="#e9b2d2"/><stop offset="1" stop-color="#e9b2d2"/></radialGradient><clipPath id="e"><path d="M12.58,17.05l4.4,3.2c.23.17.47.33.71.49a1.34,1.34,0,0,0,.27.13h0a.43.43,0,0,0,.19,0,.25.25,0,0,0,.15,0,.4.4,0,0,0,.1-.12.58.58,0,0,0,0-.19v0a1.55,1.55,0,0,0,0-.29c-.08-.28-.16-.55-.25-.83l-1.68-5.17Z" fill="none"/></clipPath><radialGradient id="f" cx="-1610.55" cy="1242.41" r="0.03" gradientTransform="translate(1156096.72 -891813.72) scale(717.83)" gradientUnits="userSpaceOnUse"><stop offset="0" stop-color="#f6e3f0"/><stop offset="0.75" stop-color="#f6e3f0"/><stop offset="0.81" stop-color="#f3deee"/><stop offset="0.88" stop-color="#ead0e6"/><stop offset="0.96" stop-color="#dbbada"/><stop offset="0.98" stop-color="#d5b3d5"/><stop offset="1" stop-color="#d5b3d5"/></radialGradient><clipPath id="g"><path d="M4.72,9.61l-.87,0a1.47,1.47,0,0,0-.29,0h0a.68.68,0,0,0-.17.09.38.38,0,0,0-.09.13.43.43,0,0,0,0,.16.44.44,0,0,0,.08.17l0,0a1,1,0,0,0,.21.21l.68.53,4.4,3.2,1.5-4.6Z" fill="none"/></clipPath><radialGradient id="h" cx="-1610.79" cy="1242.54" r="0.03" gradientTransform="translate(1576945.35 -1216437.1) scale(979)" gradientUnits="userSpaceOnUse"><stop offset="0" stop-color="#f7e2ef"/><stop offset="0.6" stop-color="#f7e2ef"/><stop offset="0.85" stop-color="#f0d6e9"/><stop offset="1" stop-color="#f0d6e9"/></radialGradient><clipPath id="i"><path d="M7,19.38c-.09.28-.17.55-.24.83a1.6,1.6,0,0,0,0,.29v0a1.06,1.06,0,0,0,0,.19.23.23,0,0,0,.1.12.24.24,0,0,0,.14,0,.43.43,0,0,0,.19,0h0a1.26,1.26,0,0,0,.26-.13c.24-.16.48-.32.71-.49l4.41-3.2-2.49-1.81-1.43-1Z" fill="none"/></clipPath><radialGradient id="j" cx="-1611.52" cy="1241.95" r="0.03" gradientTransform="translate(1123182.23 -865562.19) scale(696.96)" gradientUnits="userSpaceOnUse"><stop offset="0" stop-color="#f8e8f3"/><stop offset="0.67" stop-color="#f8e8f3"/><stop offset="0.81" stop-color="#f4deed"/><stop offset="0.91" stop-color="#efd4e8"/><stop offset="1" stop-color="#efd4e8"/></radialGradient><clipPath id="k"><path d="M15,9.61l1.5,4.6,4.4-3.2.69-.53a.8.8,0,0,0,.2-.21l0,0a.65.65,0,0,0,.08-.17.29.29,0,0,0,0-.16.22.22,0,0,0-.09-.13.61.61,0,0,0-.16-.09h0a1.35,1.35,0,0,0-.29,0l-.86,0Z" fill="none"/></clipPath><radialGradient id="l" cx="-1611.52" cy="1241.95" r="0.03" gradientTransform="translate(1123182.23 -865562.19) scale(696.96)" gradientUnits="userSpaceOnUse"><stop offset="0" stop-color="#f9e9f3"/><stop offset="0.68" stop-color="#f9e9f3"/><stop offset="0.81" stop-color="#f4deed"/><stop offset="0.98" stop-color="#eccbe2"/><stop offset="1" stop-color="#eccbe2"/></radialGradient></defs><title>iTunesBuyItWhite</title><path d="M30.94,12.31A1.09,1.09,0,1,1,32,13.38,1.08,1.08,0,0,1,30.94,12.31Zm.15,2.39H33v9.07H31.09Zm6.82,9.07V13H34.1V11.33h9.54V13h-3.8V23.77Zm13.51,0H49.64V22.21h0a2.82,2.82,0,0,1-2.81,1.66,3,3,0,0,1-3.18-3.35V14.7h1.86v5.46c0,1.38.66,2.11,1.94,2.11a2.1,2.1,0,0,0,2.16-2.34V14.7h1.86v9.07Zm1.83-9.07H55v1.54h0a2.91,2.91,0,0,1,2.86-1.64c2,0,3.14,1.28,3.14,3.36v5.81H59.2V18.32c0-1.36-.63-2.12-1.94-2.12a2.11,2.11,0,0,0-2.14,2.35v5.22H53.25V14.7Zm17.39,6.41c-.25,1.64-1.86,2.77-3.91,2.77-2.64,0-4.27-1.76-4.27-4.6s1.64-4.69,4.19-4.69,4.09,1.72,4.09,4.47v.64h-6.4v.11a2.36,2.36,0,0,0,2.44,2.57,2.05,2.05,0,0,0,2.09-1.27Zm-6.3-2.71h4.54a2.18,2.18,0,0,0-2.23-2.3A2.3,2.3,0,0,0,64.34,18.4Zm11.22-3.8c2,0,3.45,1.11,3.5,2.71H77.31c-.08-.8-.76-1.29-1.8-1.29s-1.68.47-1.68,1.17c0,.55.45.91,1.39,1.14l1.52.36c1.83.43,2.52,1.11,2.52,2.44,0,1.63-1.55,2.75-3.77,2.75s-3.57-1.09-3.71-2.75h1.84c.13.88.83,1.34,2,1.34s1.81-.46,1.81-1.18c0-.56-.34-.86-1.29-1.1l-1.62-.4C72.84,19.39,72,18.56,72,17.3,72,15.69,73.45,14.6,75.56,14.6Zm10.3,5.71c.14,1.23,1.34,2,3,2s2.7-.81,2.7-1.92-.68-1.55-2.29-1.94l-1.61-.39c-2.29-.55-3.35-1.62-3.35-3.36,0-2.14,1.87-3.62,4.53-3.62s4.43,1.48,4.49,3.62H91.42c-.11-1.24-1.14-2-2.64-2s-2.52.76-2.52,1.86c0,.88.65,1.4,2.25,1.8l1.38.33c2.55.61,3.61,1.63,3.61,3.45,0,2.33-1.86,3.79-4.81,3.79-2.75,0-4.62-1.43-4.74-3.68h1.91Zm11.56-7.75V14.7h1.72v1.48H97.42v5c0,.77.34,1.13,1.1,1.13a5,5,0,0,0,.61,0v1.47a5.35,5.35,0,0,1-1,.08c-1.84,0-2.56-.69-2.56-2.45V16.18H94.22V14.7h1.32V12.55h1.88Zm2.48,6.68c0-2.86,1.69-4.65,4.31-4.65s4.3,1.79,4.3,4.65-1.66,4.64-4.3,4.64S99.9,22.1,99.9,19.24Zm6.71,0c0-2-.89-3.12-2.4-3.12s-2.41,1.17-2.41,3.12.9,3.11,2.41,3.11S106.61,21.2,106.61,19.24Zm3.33-4.54h1.78v1.54h0a2.16,2.16,0,0,1,2.18-1.63,2.58,2.58,0,0,1,.64.07v1.74a2.56,2.56,0,0,0-.83-.12,1.88,1.88,0,0,0-1.94,2.09v5.38h-1.87V14.7Zm13.18,6.41c-.25,1.64-1.85,2.77-3.9,2.77-2.64,0-4.28-1.76-4.28-4.6s1.65-4.69,4.2-4.69,4.08,1.72,4.08,4.47v.64h-6.4v.11a2.36,2.36,0,0,0,2.44,2.57,2.07,2.07,0,0,0,2.1-1.27Zm-6.29-2.71h4.53a2.18,2.18,0,0,0-2.22-2.3A2.29,2.29,0,0,0,116.83,18.4Z" fill="#fff"/><g clip-path="url(#a)"><rect width="25.16" height="25.16" fill="url(#b)"/></g><g clip-path="url(#c)"><rect x="10.16" y="3.15" width="4.84" height="6.46" fill="url(#d)"/></g><g clip-path="url(#e)"><rect x="12.58" y="14.21" width="5.88" height="6.7" fill="url(#f)"/></g><g clip-path="url(#g)"><rect x="3.25" y="9.61" width="6.9" height="4.6" fill="url(#h)"/></g><g clip-path="url(#i)"><rect x="6.7" y="14.21" width="5.88" height="6.7" fill="url(#j)"/></g><g clip-path="url(#k)"><rect x="14.99" y="9.61" width="6.9" height="4.6" fill="url(#l)"/></g><polygon points="10.16 9.61 8.66 14.21 10.09 15.25 12.58 17.05 16.49 14.21 14.99 9.61 10.16 9.61" fill="#fff"/><path d="M30.89,7.54V1.48h2.44c1.13,0,1.82.58,1.82,1.51a1.32,1.32,0,0,1-1.07,1.3v.07a1.44,1.44,0,0,1,1.37,1.46c0,1.07-.78,1.72-2.07,1.72Zm.94-3.49H33c.83,0,1.26-.31,1.26-.89s-.41-.88-1.1-.88H31.83V4.05Zm1.36,2.69c.85,0,1.3-.35,1.3-1s-.47-1-1.35-1H31.83v2Z" fill="#fff"/><path d="M40.52,7.54h-.87V6.81h-.07a1.37,1.37,0,0,1-1.38.81,1.48,1.48,0,0,1-1.57-1.69V3h.9V5.7c0,.74.3,1.09,1,1.09a1,1,0,0,0,1.13-1.15V3h.9Z" fill="#fff"/><path d="M42,9.17V8.4h.29a.78.78,0,0,0,.83-.63l.07-.23L41.56,3h1L43.69,6.6h.07L44.9,3h1l-1.7,4.75c-.39,1.12-.83,1.47-1.76,1.47A2.36,2.36,0,0,1,42,9.17Z" fill="#fff"/><path d="M49.15,5.25a2.16,2.16,0,1,1,4.31,0,2.16,2.16,0,1,1-4.31,0Zm3.38,0c0-1-.44-1.57-1.22-1.57s-1.23.58-1.23,1.57.44,1.57,1.23,1.57S52.53,6.24,52.53,5.25Z" fill="#fff"/><path d="M54.67,3h.86v.72h.07A1.36,1.36,0,0,1,57,2.88a1.48,1.48,0,0,1,1.58,1.7v3h-.9V4.8c0-.73-.32-1.1-1-1.1a1,1,0,0,0-1.09,1.16V7.54h-.91Z" fill="#fff"/></svg>