<svg xmlns="http://www.w3.org/2000/svg" xmlns:xlink="http://www.w3.org/1999/xlink" viewBox="0 0 107.37 107.37"><defs><linearGradient id="a" x1="53.68" y1="107.37" x2="53.68" gradientTransform="translate(22.14 -15.37) rotate(20.45)" gradientUnits="userSpaceOnUse"><stop offset="0" stop-color="#f9b041"/><stop offset="1" stop-color="#ffde17"/></linearGradient></defs><title>snapchat</title><circle cx="53.68" cy="53.68" r="53.68" transform="translate(-15.37 22.14) rotate(-20.45)" fill="url(#a)"/><path d="M53.21,77.27l-1,0A8.42,8.42,0,0,1,48,75.72l-1.34-.85a14,14,0,0,0-3.9-2,8.36,8.36,0,0,0-1.94-.21,21.14,21.14,0,0,0-3.63.42h-.07a1.25,1.25,0,0,1-.51.11,1.37,1.37,0,0,1-.34,0,.66.66,0,0,1-.49-.43c-.11-.38-.19-.74-.26-1.09s-.16-.72-.27-1-.14-.34-.18-.45L35.05,70a7.74,7.74,0,0,0-1.63-.42l-.57-.12-.32-.09a11.6,11.6,0,0,1-3.22-1.14,1.78,1.78,0,0,1-.62-.47,1.18,1.18,0,0,1-.23-1.07l.07-.15a1.87,1.87,0,0,1,1.17-.74l.19-.06A12.94,12.94,0,0,0,33.77,64,16.24,16.24,0,0,0,39,58a4.32,4.32,0,0,0,.59-2.64A2.42,2.42,0,0,0,38,53.91l-.8-.29a11.61,11.61,0,0,1-2.63-1.19,1.53,1.53,0,0,0-.22-.16L34,52a1.57,1.57,0,0,1-.56-.91.27.27,0,0,1,0-.15,1.61,1.61,0,0,1,.89-1.34,2.1,2.1,0,0,1,1.27-.45,2,2,0,0,1,.41,0l.62.19a8.76,8.76,0,0,0,1.08.29,8.4,8.4,0,0,0,1.34.13,4.74,4.74,0,0,0,.86-.08l0-.09h0a20.86,20.86,0,0,0,0-3.25c0-.39,0-.79-.07-1.18a15.74,15.74,0,0,1,.67-6.75,14,14,0,0,1,4.23-5.55,14.27,14.27,0,0,1,8.7-2.78c.85,0,1.58,0,2.29.09a13,13,0,0,1,6.37,2.25,12.5,12.5,0,0,1,5.22,7.71,32,32,0,0,1,.15,5.43v.14c0,.48,0,.94,0,1.39,0,.72-.06,1.4,0,2.08,0,.11,0,.2,0,.27s0,.11,0,.14a2.84,2.84,0,0,0,.89.13,5.58,5.58,0,0,0,.94-.1,5.82,5.82,0,0,0,1.06-.29l.6-.2a2.64,2.64,0,0,1,.78-.12,2.16,2.16,0,0,1,1.07.28,2.44,2.44,0,0,1,1.09,1,1.12,1.12,0,0,1,.06.81.78.78,0,0,1-.05.18,2,2,0,0,1-.46.61,8.73,8.73,0,0,1-3.09,1.59A4.79,4.79,0,0,0,68,55a1.87,1.87,0,0,0-.09,1.69,15.08,15.08,0,0,0,2.26,4,13.64,13.64,0,0,0,6.59,4.78,2.9,2.9,0,0,0,.42.12,4,4,0,0,1,1.21.47l.06,0a1.06,1.06,0,0,1,.48.7,1,1,0,0,1-.17.8,2.78,2.78,0,0,1-1.31.93l-.16.07-.52.18a13.72,13.72,0,0,1-3.16.86h-.08a1.37,1.37,0,0,0-.94.29,4.45,4.45,0,0,0-.72,1.7l-.16.56a.18.18,0,0,1,0,.09l0,.13a.57.57,0,0,1-.16.32A.87.87,0,0,1,71,73H70.8a29.43,29.43,0,0,0-3.73-.24h-.84l-.56,0A6.06,6.06,0,0,0,64,73a23.88,23.88,0,0,0-3.37,1.93c-.66.42-1.34.86-2.05,1.26a6.64,6.64,0,0,1-2.82,1h-.26C54.78,77.22,54,77.27,53.21,77.27Z" fill="#fff" fill-rule="evenodd"/></svg>