<svg xmlns="http://www.w3.org/2000/svg" xmlns:xlink="http://www.w3.org/1999/xlink" viewBox="0 0 107.37 107.37"><defs><linearGradient id="a" x1="53.68" y1="107.37" x2="53.68" gradientUnits="userSpaceOnUse"><stop offset="0" stop-color="#386ab2"/><stop offset="1" stop-color="#3fc0f0"/></linearGradient></defs><title>twitter</title><circle cx="53.68" cy="53.68" r="53.68" fill="url(#a)"/><path d="M45.67,71.24a25.12,25.12,0,0,1-13.59-4c.71.07,1.43.11,2.13.11a17.86,17.86,0,0,0,11-3.79,8.84,8.84,0,0,1-8.28-6.15,9.65,9.65,0,0,0,1.69.15,8.7,8.7,0,0,0,2.32-.31,8.88,8.88,0,0,1-7.11-8.79,9.13,9.13,0,0,0,4,1.1,8.87,8.87,0,0,1-2.75-11.83A25.27,25.27,0,0,0,53.36,47a8.87,8.87,0,0,1,15.11-8.09,17.64,17.64,0,0,0,5.62-2.15,8.85,8.85,0,0,1-3.89,4.92,18.53,18.53,0,0,0,5.08-1.41,17.55,17.55,0,0,1-4.41,4.6,26.11,26.11,0,0,1-7.13,18.86A24.3,24.3,0,0,1,45.67,71.24Z" fill="#fff"/></svg>