<svg xmlns="http://www.w3.org/2000/svg" xmlns:xlink="http://www.w3.org/1999/xlink" viewBox="0 0 107.37 107.37"><defs><linearGradient id="a" x1="53.68" y1="107.37" x2="53.68" gradientTransform="translate(53.68 -22.24) rotate(45)" gradientUnits="userSpaceOnUse"><stop offset="0" stop-color="#0a7533"/><stop offset="1" stop-color="#5ab46c"/></linearGradient></defs><title>whatsapp</title><circle cx="53.68" cy="53.68" r="53.68" transform="translate(-22.24 53.68) rotate(-45)" fill="url(#a)"/><path d="M79.51,52.38a25.37,25.37,0,0,0-50.7-.47c0,.37,0,.74,0,1.11a24.92,24.92,0,0,0,3.64,13L27.84,79.53,41.9,75.06A25.39,25.39,0,0,0,79.52,53C79.52,52.8,79.52,52.59,79.51,52.38ZM54.15,74.18a21.24,21.24,0,0,1-11.73-3.5l-8.2,2.61,2.66-7.86A21,21,0,0,1,32.82,53,20.15,20.15,0,0,1,32.93,51a21.34,21.34,0,0,1,42.48.41c0,.54.07,1.09.07,1.65A21.27,21.27,0,0,1,54.15,74.18Z" fill="#fff" fill-rule="evenodd"/><path d="M65.78,58.1c-.63-.31-3.68-1.8-4.25-2s-1-.3-1.4.31-1.62,2-2,2.41-.73.47-1.36.16a16.8,16.8,0,0,1-5-3.07,18,18,0,0,1-3.45-4.26c-.36-.62,0-1,.27-1.26s.62-.72.94-1.08l.22-.3a6.91,6.91,0,0,0,.39-.73,1.11,1.11,0,0,0,0-1.08c-.16-.31-1.4-3.35-1.93-4.59s-1-1-1.4-1-.77-.06-1.19-.06a2.33,2.33,0,0,0-1.66.77,6.93,6.93,0,0,0-2.17,5.16,7.86,7.86,0,0,0,.32,2.1,14.07,14.07,0,0,0,2.22,4.28c.31.4,4.3,6.84,10.62,9.32s6.33,1.64,7.47,1.53,3.68-1.48,4.19-2.93A5.2,5.2,0,0,0,67,58.81C66.81,58.57,66.4,58.41,65.78,58.1Z" fill="#fff" fill-rule="evenodd"/></svg>